<?xml version="1.0" standalone="no"?>
<!DOCTYPE svg PUBLIC "-//W3C//DTD SVG 20010904//EN"
 "http://www.w3.org/TR/2001/REC-SVG-20010904/DTD/svg10.dtd">
<svg version="1.0" xmlns="http://www.w3.org/2000/svg"
 width="128.000000pt" height="128.000000pt" viewBox="0 0 128.000000 128.000000"
 preserveAspectRatio="xMidYMid meet">

<g transform="translate(0.000000,128.000000) scale(0.100000,-0.100000)"
fill="#fff" stroke="none">
<path d="M898 833 c-79 -87 -192 -212 -252 -278 -59 -66 -115 -124 -123 -129
-24 -13 -50 4 -176 118 -155 140 -160 143 -192 122 -17 -11 -25 -26 -25 -45 0
-23 28 -54 170 -187 94 -87 179 -163 190 -168 13 -6 26 -4 39 5 32 23 591 649
591 662 0 7 -7 23 -16 35 -32 46 -54 31 -206 -135z"/>
</g>
</svg>
