<?xml version="1.0" standalone="no"?>
<!DOCTYPE svg PUBLIC "-//W3C//DTD SVG 20010904//EN"
 "http://www.w3.org/TR/2001/REC-SVG-20010904/DTD/svg10.dtd">
<svg version="1.0" xmlns="http://www.w3.org/2000/svg"
 width="128.000000pt" height="128.000000pt" viewBox="0 0 128.000000 128.000000"
 preserveAspectRatio="xMidYMid meet">

<g transform="translate(0.000000,128.000000) scale(0.100000,-0.100000)"
fill="#737373" stroke="none">
<path d="M500 1152 c-23 -13 -47 -40 -70 -80 l-35 -61 -77 -1 c-56 0 -81 -4
-92 -16 -19 -18 -19 -20 -6 -45 10 -18 26 -19 420 -19 394 0 410 1 420 19 13
25 13 27 -6 45 -11 12 -36 16 -92 16 l-77 1 -35 61 c-49 85 -76 98 -210 98
-83 0 -113 -4 -140 -18z m241 -72 c10 -6 26 -24 34 -40 l16 -30 -151 0 -151 0
16 30 c8 16 23 34 32 39 23 14 179 14 204 1z"/>
<path d="M280 825 c-10 -12 -12 -70 -7 -283 7 -282 15 -342 50 -380 46 -50 60
-52 317 -52 257 0 271 2 317 52 35 38 43 98 50 383 5 240 4 272 -10 283 -9 8
-26 12 -39 10 l-23 -3 -6 -235 c-8 -292 -16 -367 -40 -391 -17 -17 -38 -19
-249 -19 -211 0 -232 2 -249 19 -25 25 -33 101 -40 391 l-6 235 -26 3 c-14 2
-31 -4 -39 -13z"/>
</g>
</svg>
