<?xml version="1.0" standalone="no"?>
<!DOCTYPE svg PUBLIC "-//W3C//DTD SVG 20010904//EN"
 "http://www.w3.org/TR/2001/REC-SVG-20010904/DTD/svg10.dtd">
<svg version="1.0" xmlns="http://www.w3.org/2000/svg"
 width="128.000000pt" height="128.000000pt" viewBox="0 0 128.000000 128.000000"
 preserveAspectRatio="xMidYMid meet">

<g transform="translate(0.000000,128.000000) scale(0.100000,-0.100000)"
fill="#fff" stroke="none">
<path d="M995 1266 c-16 -8 -231 -216 -476 -462 l-446 -449 -37 -164 c-50
-217 -59 -208 152 -157 86 21 163 42 170 46 7 3 213 206 458 451 348 348 447
452 456 481 19 63 3 104 -65 176 -86 89 -141 110 -212 78z m146 -125 c77 -77
77 -94 2 -172 -31 -32 -61 -59 -67 -59 -14 0 -166 151 -166 166 0 6 27 36 59
67 78 75 95 75 172 -2z m-456 -631 l-335 -335 -87 88 -88 87 335 335 335 335
87 -87 88 -88 -335 -335z m-433 -371 c-10 -9 -143 -41 -149 -36 -4 4 20 108
33 146 3 10 23 -3 64 -44 33 -33 56 -62 52 -66z"/>
</g>
</svg>
