<?xml version="1.0" standalone="no"?>
<!DOCTYPE svg PUBLIC "-//W3C//DTD SVG 20010904//EN"
 "http://www.w3.org/TR/2001/REC-SVG-20010904/DTD/svg10.dtd">
<svg version="1.0" xmlns="http://www.w3.org/2000/svg"
 width="128.000000pt" height="128.000000pt" viewBox="0 0 128.000000 128.000000"
 preserveAspectRatio="xMidYMid meet">

<g transform="translate(0.000000,128.000000) scale(0.100000,-0.100000)"
fill="#ffffff" stroke="none">
<path d="M618 1170 c-198 -31 -365 -175 -432 -375 -6 -16 -14 -8 -43 47 -19
37 -41 69 -50 72 -20 8 -53 -11 -53 -31 0 -28 134 -273 152 -279 16 -5 257
111 282 136 12 12 -1 57 -19 63 -8 4 -58 -17 -111 -44 l-96 -51 7 34 c25 121
128 250 246 306 185 89 387 54 526 -90 67 -71 96 -120 118 -205 41 -157 -13
-333 -136 -447 -161 -150 -381 -163 -577 -36 -28 19 -57 3 -57 -31 0 -32 76
-82 169 -111 98 -31 235 -30 326 1 216 74 370 289 370 516 0 220 -155 434
-362 503 -76 25 -183 34 -260 22z"/>
</g>
</svg>
