<?xml version="1.0" standalone="no"?>
<!DOCTYPE svg PUBLIC "-//W3C//DTD SVG 20010904//EN"
 "http://www.w3.org/TR/2001/REC-SVG-20010904/DTD/svg10.dtd">
<svg version="1.0" xmlns="http://www.w3.org/2000/svg"
 width="128.000000pt" height="128.000000pt" viewBox="0 0 128.000000 128.000000"
 preserveAspectRatio="xMidYMid meet">

<g transform="translate(0.000000,128.000000) scale(0.100000,-0.100000)"
fill="#DC2626" stroke="none">
<path d="M545 1201 c-22 -10 -52 -31 -67 -47 -24 -26 -386 -642 -444 -757 -63
-123 -27 -249 89 -313 l52 -29 465 0 c520 0 492 -4 573 74 71 67 83 170 33
269 -60 118 -420 730 -444 755 -63 67 -172 87 -257 48z m160 -100 c22 -13 83
-110 237 -378 114 -197 214 -376 223 -396 16 -40 12 -76 -13 -115 -33 -52 -38
-52 -515 -52 l-444 0 -34 23 c-47 32 -66 88 -45 140 8 20 108 200 223 399 154
267 216 366 238 379 38 24 92 24 130 0z"/>
<path d="M617 863 c-38 -10 -46 -51 -37 -184 5 -68 10 -141 10 -161 0 -56 39
-84 80 -58 22 14 42 321 24 368 -7 17 -17 32 -23 32 -5 0 -15 2 -23 4 -7 2
-21 2 -31 -1z"/>
<path d="M595 380 c-24 -27 -22 -70 5 -92 44 -35 100 -10 100 46 0 59 -66 89
-105 46z"/>
</g>
</svg>
